<?xml version="1.0" encoding="UTF-8"?>
<svg width="24px" height="21px" viewBox="0 0 24 21" version="1.1" xmlns="http://www.w3.org/2000/svg" xmlns:xlink="http://www.w3.org/1999/xlink">
    <title>编组</title>
    <g id="页面-1" stroke="none" stroke-width="1" fill="none" fill-rule="evenodd">
        <g id="画板" transform="translate(-78.000000, -93.000000)">
            <g id="编组" transform="translate(78.000000, 93.000000)">
                <path d="M16.0649404,0 L0,7.15119409 C0.648180243,13.0852103 3.3256703,17.2475914 8.03247018,19.6383377 C12.7392701,22.0290839 18.06178,21.2716556 24,17.3660528 L16.0649404,0 Z" id="路径-13" fill="#000000"></path>
                <path d="M16.0649404,0 L3.12702537,5.76771139 C4.37383797,10.8817588 6.82701981,14.3779168 10.4865709,16.2561854 C14.1461219,18.134454 18.6505983,18.5044098 24,17.3660528 L16.0649404,0 Z" id="路径-13" fill="#B7B7B7"></path>
                <path d="M16.0649404,0 L10.3137362,2.56384696 C10.8674749,3.90793554 11.9507338,5.02965047 13.5635127,5.92899173 C15.1762916,6.828333 17.0178576,7.05750043 19.0882108,6.61649404 L16.0649404,0 Z" id="路径-13" fill="#DCDCDC"></path>
                <path d="M11.1380559,14.9677468 C7.37489136,12.7951333 5.19386895,9.51031588 4.59498867,5.11329461 L3.12702537,5.76771139 C4.37383797,10.8817588 6.82701981,14.3779168 10.4865709,16.2561854 C14.1461219,18.134454 18.6505983,18.5044098 24,17.3660528 L23.3485974,15.9404439 C18.971401,17.4645927 14.9012205,17.1403604 11.1380559,14.9677468 Z" id="路径-13" fill="#FFFFFF"></path>
                <ellipse id="椭圆形备份" fill="#000000" cx="10.959891" cy="10.8381703" rx="1" ry="1"></ellipse>
                <ellipse id="椭圆形备份-2" fill="#000000" cx="15.1911396" cy="10.3475281" rx="1" ry="1"></ellipse>
                <ellipse id="椭圆形备份-3" fill="#000000" cx="18.0447723" cy="13.5857663" rx="1" ry="1"></ellipse>
                <ellipse id="椭圆形备份-3" fill="#000000" cx="9.1886707" cy="7.4036753" rx="1" ry="1"></ellipse>
            </g>
        </g>
    </g>
</svg>